<?xml version="1.0" standalone="no"?>
<!DOCTYPE svg PUBLIC "-//W3C//DTD SVG 1.1//EN" "http://www.w3.org/Graphics/SVG/1.1/DTD/svg11.dtd">
<svg xmlns="http://www.w3.org/2000/svg" id="Camada_2" data-name="Camada 2" viewBox="0 0 161.27 40.45" width="161.27000427246094" height="40.45000076293945">
  <defs>
    <style>
      .cls-1 {
        fill: #222221;
      }
    </style>
  </defs>
  <g id="Camada_1-2" data-name="Camada 1">
    <g>
      <path class="cls-1" d="m0,0v40.45h40.45V0H0Zm.92,26c1.76,1.12,3.3,1.48,4.58,1.05,3.13-1.04,3.89-6.29,4.5-10.5.32-2.18.64-4.44,1.22-4.5.11,0,.23.05.35.17-.33.86-.55,2.22-.81,3.94-.57,3.76-1.36,8.9-4.16,11.5-2.01,1.87-4.16,2.32-5.69,2.36v-4.03Zm6,2.01c2.92-2.72,3.72-7.95,4.3-11.77.21-1.37.41-2.69.68-3.56.16.27.32.61.49,1.02-.11.62-.22,1.31-.33,2.09-.55,3.74-1.31,8.87-4.15,12.93-2.34,3.35-5.05,5.15-6.99,6.1v-4.32c1.62-.03,3.88-.51,6-2.48Zm5.17-15.84c.14-.29.29-.48.47-.51.02,0,.03,0,.05,0,.09,0,.19.04.28.11-.14.32-.25.71-.35,1.17-.15-.31-.3-.56-.45-.77ZM.92,39.52v-4.19c1.99-.94,4.89-2.8,7.36-6.35,2.9-4.15,3.67-9.34,4.23-13.13.07-.45.13-.88.2-1.29.18.52.37,1.09.56,1.71-.5,3.53-1.35,8.45-4.05,13.48-1.96,3.65-4.67,6.94-8.05,9.77h-.25ZM12.87,13.69c.11-.62.24-1.16.39-1.57.17.21.34.5.51.84-.12.65-.23,1.39-.35,2.26-.19-.58-.37-1.08-.55-1.53Zm.59-2.02c.13-.22.27-.36.44-.38.1-.02.2.01.3.05-.12.26-.21.58-.3.94-.15-.24-.3-.45-.45-.61Zm.41,3.69c.08-.6.16-1.16.24-1.67.75,1.7,1.56,4.21,2.3,6.55,1.4,4.39,2.74,8.59,4.22,9.97-.36.8-.75,1.29-1.17,1.29h0c-1.53,0-3.16-6.02-4.48-10.85-.45-1.67-.86-3.14-1.24-4.39.04-.3.09-.61.13-.89Zm2.99,4.74c-1.02-3.19-1.84-5.68-2.61-7.2.1-.52.22-.94.35-1.27,1.12,1.1,2.47,4.75,3.7,8.04,1.1,2.97,2.17,5.84,3.26,7.69-.23.93-.48,1.74-.73,2.4-1.34-1.43-2.78-5.92-3.97-9.65Zm-2.03-8.88c.12-.17.26-.28.42-.31.03,0,.07,0,.11,0,1.35,0,3.2,4.32,4.84,8.15.72,1.69,1.43,3.35,2.14,4.78-.2,1.01-.4,1.98-.61,2.87-1-1.87-2.03-4.63-2.98-7.19-1.41-3.79-2.66-7.16-3.91-8.28Zm7.07,16.67c.29.44.58.8.88,1.06-.32.78-.68,1.26-1.1,1.28,0,0-.02,0-.03,0-.15,0-.3-.06-.45-.16.24-.6.47-1.33.69-2.18Zm.16-.6c.2-.83.41-1.77.61-2.8.31.59.61,1.13.92,1.61-.2.92-.41,1.74-.64,2.4-.29-.29-.59-.7-.9-1.21Zm.76-3.54c.18-.92.37-1.9.56-2.95,1.18-6.34,2.51-13.48,4.91-14.1-1.95,2.19-2.83,7.92-3.69,13.5-.28,1.81-.56,3.64-.88,5.24-.3-.51-.6-1.08-.91-1.69Zm1.13,2.87c.32.45.65.81.97,1.07-.28.76-.61,1.23-1.02,1.26-.02,0-.04,0-.06,0-.16,0-.33-.07-.5-.17.22-.6.42-1.32.61-2.17Zm.13-.61c.33-1.57.63-3.5.98-5.74.87-5.62,1.84-11.9,3.91-13.59.1.03.21.06.32.11-1.76,2.52-2.41,7.95-2.99,12.87-.34,2.86-.69,5.78-1.23,7.56-.32-.29-.65-.71-.99-1.23Zm5.49-19.58s-.07-.02-.11-.04c.07-.03.15-.06.22-.08-.04.04-.08.07-.11.12Zm-2.81,13.3c.56-4.69,1.23-10.3,2.93-12.7.13.09.27.19.41.32-1.35,2.77-1.73,7.48-2.07,11.79-.33,4.13-.67,8.41-1.92,8.56-.03,0-.07,0-.1,0-.18,0-.36-.07-.55-.17.58-1.75.91-4.56,1.3-7.79Zm3.2-13.04c.14-.16.28-.29.44-.41.09.02.19.04.29.08-.13.18-.26.38-.38.59-.12-.1-.23-.17-.34-.25Zm9.57,8.29c-2.42-5.46-4.9-8.76-7.07-9.46.02,0,.03-.02.05-.02,1.72-.53,4.08.92,7.02,4.28v5.2Zm0,1.17v5.04c-2.98-8.47-5.74-13.57-8.11-15,.13-.13.27-.25.41-.35,2.21.22,5.02,3.96,7.7,10.3Zm-8.55-10.16s-.03-.01-.04-.02c.03-.01.06-.03.1-.04-.02.02-.04.04-.05.06Zm.13.56c1.75.97,4.53,4.65,8.41,16.07v4.93c-3.47-11.13-6.4-17.83-8.88-20.28.14-.27.3-.5.46-.72ZM39.52.92v8.15c-2.91-3.23-5.32-4.61-7.15-4.04-.24.07-.47.19-.68.33-.22,0-.43,0-.64.05-.28.07-.53.2-.77.36-.19-.02-.37-.01-.55.02-.32.06-.62.21-.89.4-.14-.02-.29-.04-.42-.02-2.85.34-4.2,7.55-5.49,14.53-.15.78-.29,1.57-.44,2.34-.63-1.33-1.26-2.79-1.86-4.2-2-4.67-3.73-8.71-5.45-8.41-.3.05-.54.23-.73.5-.15-.08-.31-.13-.46-.13-.05,0-.09,0-.13,0-.3.04-.53.24-.72.54-.2-.13-.4-.19-.6-.16-.31.04-.54.26-.74.61-.19-.16-.39-.25-.59-.23-.94.09-1.21,2-1.63,4.89-.56,3.87-1.33,9.18-4.19,10.13-1.2.4-2.69,0-4.44-1.17V.92h38.6ZM1.89,39.52c3.23-2.79,5.84-6,7.75-9.55,2.49-4.65,3.42-9.18,3.95-12.65.33,1.13.65,2.32.95,3.44,1.83,6.76,3.17,11.2,4.92,11.2h.01c.6,0,1.09-.52,1.54-1.47.21.12.42.2.64.2.02,0,.03,0,.05,0,.59-.03,1.05-.54,1.46-1.47.22.13.45.2.67.2.03,0,.07,0,.1,0,.58-.05,1.01-.58,1.36-1.46.24.13.47.2.71.2.05,0,.1,0,.15,0,1.62-.2,1.93-4.08,2.32-8.98.32-4.03.7-8.74,1.96-11.48,2.01,2.1,4.94,7.88,9.08,21.42v10.43H1.89Z"/>
      <g>
        <g>
          <path class="cls-1" d="m46.99,35.63v1.44h1.8v.22h-1.8v1.49h-.25v-3.38h2.26v.22h-2.01Z"/>
          <path class="cls-1" d="m55.45,37.1c0-.98.75-1.71,1.76-1.71s1.75.73,1.75,1.71-.75,1.71-1.75,1.71-1.76-.73-1.76-1.71Zm3.26,0c0-.85-.65-1.49-1.5-1.49s-1.51.63-1.51,1.49.65,1.49,1.51,1.49,1.5-.63,1.5-1.49Z"/>
          <path class="cls-1" d="m66.44,35.63h-1.22v-.22h2.68v.22h-1.21v3.15h-.25v-3.15Z"/>
          <path class="cls-1" d="m74.16,37.1c0-.98.75-1.71,1.76-1.71s1.75.73,1.75,1.71-.75,1.71-1.75,1.71-1.76-.73-1.76-1.71Zm3.26,0c0-.85-.65-1.49-1.5-1.49s-1.51.63-1.51,1.49.65,1.49,1.51,1.49,1.5-.63,1.5-1.49Z"/>
          <path class="cls-1" d="m86.96,37.11h.24v1.26c-.3.29-.74.43-1.21.43-1.02,0-1.76-.73-1.76-1.71s.75-1.71,1.77-1.71c.49,0,.92.15,1.21.46l-.15.16c-.29-.29-.65-.4-1.06-.4-.88,0-1.53.64-1.53,1.49s.65,1.49,1.53,1.49c.36,0,.68-.09.96-.31v-1.16Z"/>
          <path class="cls-1" d="m96.65,38.79l-.81-1.13c-.11.01-.21.02-.33.02h-.96v1.1h-.25v-3.38h1.21c.85,0,1.36.42,1.36,1.14,0,.54-.29.91-.79,1.06l.84,1.18h-.28Zm-1.13-1.32c.72,0,1.11-.34,1.11-.92s-.39-.92-1.11-.92h-.96v1.83h.96Z"/>
          <path class="cls-1" d="m105.89,37.84h-1.96l-.43.95h-.26l1.55-3.38h.25l1.55,3.38h-.26l-.43-.95Zm-.09-.21l-.89-1.95-.88,1.95h1.77Z"/>
          <path class="cls-1" d="m113.48,35.63v1.44h1.8v.22h-1.8v1.49h-.25v-3.38h2.26v.22h-2.01Z"/>
          <path class="cls-1" d="m122.3,35.41h.25v3.38h-.25v-3.38Z"/>
          <path class="cls-1" d="m131.83,37.84h-1.96l-.43.95h-.26l1.55-3.38h.25l1.55,3.38h-.26l-.43-.95Zm-.09-.21l-.89-1.95-.88,1.95h1.77Z"/>
        </g>
        <g>
          <path class="cls-1" d="m59.74,19.39v13.09h-1.53v-10.6l-3.59,5.1h-2.77l-3.59-5.08v10.58h-1.49v-13.09h1.55l4.28,6.2h1.3l4.28-6.2h1.55Z"/>
          <path class="cls-1" d="m72.97,31.13v1.35h-9.89v-13.09h9.79v1.35h-8.26v5.97c1.15-1.41,2.88-2.35,5-2.42v1.36c-2.85.11-4.94,2.44-5,5.24v.25h8.36Z"/>
          <path class="cls-1" d="m86.77,19.39v13.09h-1.22l-8.75-10.73v10.73h-1.49v-13.09h1.43l8.53,10.49v-10.49h1.49Z"/>
          <path class="cls-1" d="m102.01,25.9v.04c0,3.68-2.94,6.54-7.2,6.54h-4.7v-13.09h4.7c4.26,0,7.2,2.82,7.2,6.51Zm-1.59.04c0-2.9-2.19-5.18-5.61-5.18h-3.17v10.36h3.17c3.42,0,5.61-2.24,5.61-5.14v-.04Z"/>
          <path class="cls-1" d="m117.88,25.9v.04c0,3.61-2.81,6.77-6.93,6.77s-6.89-3.12-6.89-6.73v-.04c0-3.61,2.81-6.77,6.93-6.77s6.89,3.12,6.89,6.73Zm-1.59.04c0-2.97-2.25-5.4-5.34-5.4s-5.3,2.39-5.3,5.37v.04c0,2.97,2.25,5.4,5.34,5.4s5.3-2.39,5.3-5.37v-.04Z"/>
          <path class="cls-1" d="m132.03,19.39v13.09h-1.22l-8.75-10.73v10.73h-1.49v-13.09h1.43l8.53,10.49v-10.49h1.49Z"/>
          <path class="cls-1" d="m145.68,29.68l.69,1.25c-1.27,1.08-2.71,1.77-4.84,1.77-3.91,0-6.79-2.97-6.79-6.73v-.04c0-3.7,2.86-6.77,6.85-6.77,2.19,0,3.6.67,4.83,1.69l-.74,1.34c-1.11-.98-2.35-1.67-4.11-1.67-3,0-5.24,2.36-5.24,5.37v.04c0,3.03,2.26,5.4,5.24,5.4,1.74,0,2.91-.6,4.12-1.66Z"/>
          <path class="cls-1" d="m161.27,32.48h-1.64l-5.26-11.46-3.58,7.75c.82-.41,1.75-.65,2.79-.69v1.36c-2.05.08-3.71,1.31-4.5,3.03h-1.57l6.17-13.18h1.43l6.17,13.18Z"/>
        </g>
        <g>
          <path class="cls-1" d="m60.5,3.35v13.77h-1.61V5.97l-3.78,5.37h-2.91l-3.78-5.35v11.13h-1.57V3.35h1.63l4.51,6.52h1.37l4.51-6.52h1.63Z"/>
          <path class="cls-1" d="m77.18,17.12h-1.73l-5.54-12.06-3.77,8.15c.86-.43,1.84-.68,2.93-.72v1.43c-2.16.08-3.9,1.38-4.73,3.19h-1.65l6.5-13.87h1.51l6.5,13.87Z"/>
          <path class="cls-1" d="m86.9,11.87c1.68,1.33,2.66,3.22,2.66,5.25h-1.89v-.04c0-1.99-1.13-3.9-3.35-4.82v-1.42s.16,0,.16,0c2.36,0,3.91-1.22,3.91-3.03v-.04c0-1.97-1.53-2.99-3.83-2.99h-3.6v12.33h-1.61V3.35h5.34c3.22,0,5.33,1.65,5.33,4.37v.04c0,2.1-1.29,3.48-3.12,4.11Z"/>
          <path class="cls-1" d="m103.64,14.18l.73,1.31c-1.33,1.14-2.86,1.87-5.1,1.87-4.11,0-7.15-3.13-7.15-7.08v-.04c0-3.89,3.01-7.12,7.21-7.12,2.3,0,3.78.7,5.09,1.78l-.78,1.41c-1.16-1.03-2.47-1.75-4.33-1.75-3.16,0-5.52,2.48-5.52,5.65v.04c0,3.19,2.38,5.68,5.52,5.68,1.83,0,3.07-.63,4.33-1.74Z"/>
          <path class="cls-1" d="m119.86,10.2v.04c0,3.8-2.95,7.12-7.29,7.12s-7.25-3.28-7.25-7.08v-.04c0-3.8,2.95-7.12,7.29-7.12s7.25,3.28,7.25,7.08Zm-1.67.04c0-3.13-2.36-5.68-5.62-5.68s-5.58,2.52-5.58,5.65v.04c0,3.13,2.36,5.68,5.62,5.68s5.58-2.52,5.58-5.65v-.04Z"/>
          <path class="cls-1" d="m131.99,12.86v.04c0,2.63-2.1,4.42-5.05,4.42-2.02,0-3.78-.92-5.05-2.13l1.05-1.1c1.23,1.13,2.58,1.85,4.02,1.85,2.02,0,3.41-1.27,3.41-2.98v-.04c0-1.65-1.42-2.79-3.43-2.82v1.18c-.05,0-.11,0-.16,0-2.75,0-4.89-1.41-4.89-3.72v-.03c0-2.38,2.1-4,5.05-4,2.02,0,3.78.83,5.05,1.93l-1.05.99c-1.23-1.03-2.58-1.67-4.02-1.67-2.02,0-3.41,1.15-3.41,2.69v.04c0,1.49,1.42,2.53,3.43,2.55v-1.31c.05,0,.11,0,.16,0,2.75,0,4.89,1.56,4.88,4.12Z"/>
        </g>
        <rect class="cls-1" x="139.13" y="33.83" width="4.76" height="1.13"/>
      </g>
    </g>
  </g>
</svg>